<svg xmlns="http://www.w3.org/2000/svg" xmlns:xlink="http://www.w3.org/1999/xlink" width="500" zoomAndPan="magnify" viewBox="0 0 375 374.999991" height="500" preserveAspectRatio="xMidYMid meet" version="1.0"><defs><g/><clipPath id="068b5ad79c"><path d="M 59.449219 102.027344 L 315.199219 102.027344 L 315.199219 187.527344 L 59.449219 187.527344 Z M 59.449219 102.027344 " clip-rule="nonzero"/></clipPath></defs><g clip-path="url(#068b5ad79c)"><path fill="#000000" d="M 59.449219 187.617188 L 129.980469 135.019531 L 200.257812 102.078125 L 228.527344 131.542969 L 242.027344 126.789062 L 259.789062 144.84375 L 281.304688 144.84375 L 315.058594 182.226562 L 272.292969 179.382812 L 285.800781 175.257812 L 241.78125 131.542969 L 193.851562 167.976562 L 175.753906 172.726562 L 220.277344 136.613281 L 195.765625 109.671875 L 116.21875 167.65625 Z M 59.449219 187.617188 " fill-opacity="1" fill-rule="nonzero"/></g><path fill="#000000" d="M 241.960938 156.113281 L 255.136719 156.113281 L 255.136719 172.28125 L 241.960938 172.28125 Z M 241.960938 156.113281 " fill-opacity="1" fill-rule="nonzero"/><path fill="#000000" d="M 225.074219 156.113281 L 238.25 156.113281 L 238.25 172.28125 L 225.074219 172.28125 Z M 225.074219 156.113281 " fill-opacity="1" fill-rule="nonzero"/><g fill="#000000" fill-opacity="1"><g transform="translate(61.079222, 221.587968)"><g><path d="M 18.3125 -4.875 C 22.40625 -4.875 25.25 -6.929688 26.84375 -11.046875 L 32.765625 -8.8125 C 31.492188 -5.6875 29.625 -3.359375 27.15625 -1.828125 C 24.695312 -0.304688 21.75 0.453125 18.3125 0.453125 C 13.09375 0.453125 9.054688 -1.019531 6.203125 -3.96875 C 3.359375 -6.925781 1.9375 -11.0625 1.9375 -16.375 C 1.9375 -21.695312 3.304688 -25.785156 6.046875 -28.640625 C 8.796875 -31.492188 12.78125 -32.921875 18 -32.921875 C 21.8125 -32.921875 24.914062 -32.15625 27.3125 -30.625 C 29.707031 -29.101562 31.382812 -26.863281 32.34375 -23.90625 L 26.359375 -22.265625 C 25.859375 -23.890625 24.863281 -25.179688 23.375 -26.140625 C 21.894531 -27.097656 20.148438 -27.578125 18.140625 -27.578125 C 15.066406 -27.578125 12.734375 -26.625 11.140625 -24.71875 C 9.554688 -22.820312 8.765625 -20.039062 8.765625 -16.375 C 8.765625 -12.644531 9.582031 -9.796875 11.21875 -7.828125 C 12.851562 -5.859375 15.21875 -4.875 18.3125 -4.875 Z M 18.3125 -4.875 "/></g></g></g><g fill="#000000" fill-opacity="1"><g transform="translate(106.92521, 221.587968)"><g><path d="M 24.078125 0 L 24.078125 -13.90625 L 9.953125 -13.90625 L 9.953125 0 L 3.15625 0 L 3.15625 -32.4375 L 9.953125 -32.4375 L 9.953125 -19.53125 L 24.078125 -19.53125 L 24.078125 -32.4375 L 30.875 -32.4375 L 30.875 0 Z M 24.078125 0 "/></g></g></g><g fill="#000000" fill-opacity="1"><g transform="translate(152.771197, 221.587968)"><g><path d="M 26.09375 0 L 23.203125 -8.296875 L 10.84375 -8.296875 L 7.96875 0 L 1.171875 0 L 13.015625 -32.4375 L 21.015625 -32.4375 L 32.8125 0 Z M 17.015625 -27.453125 L 16.875 -26.9375 C 16.71875 -26.382812 16.53125 -25.753906 16.3125 -25.046875 C 16.101562 -24.347656 14.785156 -20.46875 12.359375 -13.40625 L 21.6875 -13.40625 L 18.484375 -22.71875 L 17.5 -25.859375 Z M 17.015625 -27.453125 "/></g></g></g><g fill="#000000" fill-opacity="1"><g transform="translate(198.617181, 221.587968)"><g><path d="M 19.203125 0 L 12.3125 0 L 0.328125 -32.4375 L 7.421875 -32.4375 L 14.09375 -11.609375 C 14.507812 -10.253906 15.078125 -8.210938 15.796875 -5.484375 L 16.28125 -7.453125 L 17.453125 -11.609375 L 24.109375 -32.4375 L 31.125 -32.4375 Z M 19.203125 0 "/></g></g></g><g fill="#000000" fill-opacity="1"><g transform="translate(241.861288, 221.587968)"><g><path d="M 3.15625 0 L 3.15625 -32.4375 L 28.671875 -32.4375 L 28.671875 -27.1875 L 9.953125 -27.1875 L 9.953125 -19.046875 L 27.265625 -19.046875 L 27.265625 -13.796875 L 9.953125 -13.796875 L 9.953125 -5.25 L 29.609375 -5.25 L 29.609375 0 Z M 3.15625 0 "/></g></g></g><g fill="#000000" fill-opacity="1"><g transform="translate(285.105384, 221.587968)"><g><path d="M 27.453125 0 L 1.40625 0 L 1.40625 -4.8125 L 18.953125 -27.125 L 3.15625 -27.125 L 3.15625 -32.4375 L 26.5 -32.4375 L 26.5 -27.71875 L 8.953125 -5.3125 L 27.453125 -5.3125 Z M 27.453125 0 "/></g></g></g><g fill="#000000" fill-opacity="1"><g transform="translate(121.860989, 241.898715)"><g><path d="M 3.703125 -10.109375 L 3.703125 -6.375 L 9.875 -6.375 L 9.875 -4.421875 L 3.703125 -4.421875 L 3.703125 0 L 1.171875 0 L 1.171875 -12.0625 L 10.0625 -12.0625 L 10.0625 -10.109375 Z M 3.703125 -10.109375 "/></g></g></g><g fill="#000000" fill-opacity="1"><g transform="translate(140.812599, 241.898715)"><g><path d="M 9.453125 0 L 6.65625 -4.578125 L 3.703125 -4.578125 L 3.703125 0 L 1.171875 0 L 1.171875 -12.0625 L 7.203125 -12.0625 C 8.640625 -12.0625 9.75 -11.75 10.53125 -11.125 C 11.3125 -10.507812 11.703125 -9.625 11.703125 -8.46875 C 11.703125 -7.625 11.460938 -6.894531 10.984375 -6.28125 C 10.503906 -5.664062 9.859375 -5.257812 9.046875 -5.0625 L 12.296875 0 Z M 9.15625 -8.359375 C 9.15625 -9.515625 8.414062 -10.09375 6.9375 -10.09375 L 3.703125 -10.09375 L 3.703125 -6.546875 L 7 -6.546875 C 7.707031 -6.546875 8.242188 -6.703125 8.609375 -7.015625 C 8.972656 -7.335938 9.15625 -7.785156 9.15625 -8.359375 Z M 9.15625 -8.359375 "/></g></g></g><g fill="#000000" fill-opacity="1"><g transform="translate(161.715929, 241.898715)"><g><path d="M 9.703125 0 L 8.625 -3.078125 L 4.03125 -3.078125 L 2.96875 0 L 0.4375 0 L 4.84375 -12.0625 L 7.8125 -12.0625 L 12.203125 0 Z M 6.328125 -10.203125 L 6.28125 -10.015625 C 6.21875 -9.804688 6.144531 -9.570312 6.0625 -9.3125 C 5.988281 -9.050781 5.5 -7.609375 4.59375 -4.984375 L 8.0625 -4.984375 L 6.875 -8.453125 L 6.5 -9.609375 Z M 6.328125 -10.203125 "/></g></g></g><g fill="#000000" fill-opacity="1"><g transform="translate(182.61926, 241.898715)"><g><path d="M 11.1875 0 L 11.1875 -7.3125 C 11.1875 -7.476562 11.1875 -7.644531 11.1875 -7.8125 C 11.195312 -7.976562 11.226562 -8.6875 11.28125 -9.9375 C 10.875 -8.40625 10.570312 -7.335938 10.375 -6.734375 L 8.203125 0 L 6.40625 0 L 4.234375 -6.734375 L 3.3125 -9.9375 C 3.382812 -8.613281 3.421875 -7.738281 3.421875 -7.3125 L 3.421875 0 L 1.171875 0 L 1.171875 -12.0625 L 4.546875 -12.0625 L 6.71875 -5.3125 L 6.90625 -4.671875 L 7.3125 -3.046875 L 7.84375 -4.984375 L 10.0625 -12.0625 L 13.4375 -12.0625 L 13.4375 0 Z M 11.1875 0 "/></g></g></g><g fill="#000000" fill-opacity="1"><g transform="translate(205.465751, 241.898715)"><g><path d="M 1.171875 0 L 1.171875 -12.0625 L 3.703125 -12.0625 L 3.703125 0 Z M 1.171875 0 "/></g></g></g><g fill="#000000" fill-opacity="1"><g transform="translate(218.579317, 241.898715)"><g><path d="M 8.515625 0 L 3.265625 -9.28125 C 3.367188 -8.382812 3.421875 -7.660156 3.421875 -7.109375 L 3.421875 0 L 1.171875 0 L 1.171875 -12.0625 L 4.0625 -12.0625 L 9.390625 -2.703125 C 9.285156 -3.554688 9.234375 -4.335938 9.234375 -5.046875 L 9.234375 -12.0625 L 11.484375 -12.0625 L 11.484375 0 Z M 8.515625 0 "/></g></g></g><g fill="#000000" fill-opacity="1"><g transform="translate(239.482647, 241.898715)"><g><path d="M 6.90625 -1.8125 C 7.5625 -1.8125 8.195312 -1.90625 8.8125 -2.09375 C 9.425781 -2.28125 9.898438 -2.523438 10.234375 -2.828125 L 10.234375 -4.5 L 7.296875 -4.5 L 7.296875 -6.359375 L 12.546875 -6.359375 L 12.546875 -1.921875 C 11.910156 -1.265625 11.078125 -0.75 10.046875 -0.375 C 9.023438 -0.0078125 7.953125 0.171875 6.828125 0.171875 C 4.867188 0.171875 3.359375 -0.367188 2.296875 -1.453125 C 1.242188 -2.546875 0.71875 -4.09375 0.71875 -6.09375 C 0.71875 -8.070312 1.25 -9.585938 2.3125 -10.640625 C 3.375 -11.703125 4.898438 -12.234375 6.890625 -12.234375 C 9.722656 -12.234375 11.523438 -11.1875 12.296875 -9.09375 L 9.96875 -8.390625 C 9.71875 -9.003906 9.320312 -9.46875 8.78125 -9.78125 C 8.25 -10.09375 7.617188 -10.25 6.890625 -10.25 C 5.703125 -10.25 4.800781 -9.890625 4.1875 -9.171875 C 3.570312 -8.453125 3.265625 -7.425781 3.265625 -6.09375 C 3.265625 -4.726562 3.582031 -3.671875 4.21875 -2.921875 C 4.851562 -2.179688 5.75 -1.8125 6.90625 -1.8125 Z M 6.90625 -1.8125 "/></g></g></g></svg>